# xmcd CD database file
# Copyright (C) 1995-1998 Ti Kan
#
# Track frame offsets:
#	150
#	12765
#	23430
#	35929
#	47062
#	59829
#	75460
#	85332
#	93345
#	104842
#	114077
#	125454
#	138745
#	149923
#	168882
#	181139
#	193368
#	208709
#
# Disc length: 2899 seconds
#
# Revision: 1
# Processed by: cddbd v1.5.1PL2 Copyright (c) Steve Scherf et al.
# Submitted via: CDex 1.30Release
#
DISCID=060b5112
DTITLE=Vereous - Country Legends 2
DYEAR=2006
DGENRE=Country
TTITLE0=1. Johnny Cash - Ring of Fire
TTITLE1=2. Billie Jo Spears - By The Time I Get to Phoenix - I'm so Lonesome
TTITLE1=I Could Cry
TTITLE2=3. Glen Campbell - By the Time I Get to Phoenix
TTITLE3=4. Patsy Cline - Hungry for Love
TTITLE4=5.  Dottie West - I Fall to Pieces
TTITLE5=6. Cash McCall - Across the Wide Missouri
TTITLE6=7. Glen Campbell - Gentle on My Mind
TTITLE7=8. Willie Nelson - Half a Man
TTITLE8=9. Patsy Cline - Never No More
TTITLE9=10. Conway Twitty - This Road That I Walk
TTITLE10=11. George Jones - The Window Up Above
TTITLE11=12. Gene Autry - Mexicali Rose
TTITLE12=13. Waylon Jennings - Big Mamou
TTITLE13=14. Cowboy Copas - The Cowboy's Deck of Cards
TTITLE14=15. Willie Nelson - Shelter in My Arms
TTITLE15=16. Johnny Cash - Folsom Prison Blues
TTITLE16=17. Bobby Bare - Leaving On a Jet Plane
TTITLE17=18. Patsy Cline - Ain't No Wheels On This Ship
EXTD=YEAR: 2006 ID3G:   2
EXTT0=
EXTT1=
EXTT2=
EXTT3=
EXTT4=
EXTT5=
EXTT6=
EXTT7=
EXTT8=
EXTT9=
EXTT10=
EXTT11=
EXTT12=
EXTT13=
EXTT14=
EXTT15=
EXTT16=
EXTT17=
PLAYORDER=
